<svg width="184" height="40" viewBox="0 0 184 40" fill="none" xmlns="http://www.w3.org/2000/svg">
<path d="M3.34732 33.7561C3.34732 33.7561 4.3339 37.5507 10.5066 36.5803L11.5564 34.0396L9.78088 32.1102L4.86418 30.4886L3.3457 33.7567" fill="#392650"/>
<path d="M23.0204 26.6418C23.0204 27.9864 22.3265 28.3384 20.5829 29.0772L5.67617 35.3698C5.35617 35.3699 5.03929 35.3069 4.74365 35.1844C4.448 35.0619 4.17939 34.8824 3.95316 34.6561C3.72694 34.4298 3.54753 34.1611 3.42521 33.8654C3.30288 33.5697 3.24002 33.2528 3.24023 32.9328V11.9905C3.24023 10.6426 4.03079 10.1961 5.67617 9.55239L20.5829 3.25977C20.9028 3.25955 21.2196 3.32237 21.5152 3.44463C21.8109 3.56689 22.0795 3.7462 22.3058 3.97231C22.5321 4.19843 22.7117 4.46691 22.8342 4.76243C22.9567 5.05795 23.0198 5.37471 23.0199 5.69463V26.6412" fill="#D7CAE7"/>
<path d="M4.5957 35.1125C4.5957 35.1125 10.1825 36.7163 10.5076 36.578C10.8343 36.4392 10.2997 34.155 10.2997 34.155L8.27904 31.9783L6.39822 31.8919L6.0672 32.3617L4.5957 35.1125Z" fill="#1E1E1E"/>
<path d="M20.2331 4.7085L3.69727 11.6572L4.47217 16.1084L6.93187 16.3547L15.1474 15.0317L20.2553 12.3549L24.0153 7.206C23.1934 5.73234 21.9876 4.82028 20.2337 4.7085" fill="#F4F5F5"/>
<path d="M8.07693 13.1968C8.07693 12.808 8.14389 12.4948 8.27835 12.2302C6.58761 12.0736 4.98975 11.5827 3.82173 10.5319C3.43617 10.8872 3.24609 11.33 3.24609 11.9899V32.9332C3.24588 33.2531 3.3087 33.57 3.43096 33.8656C3.55322 34.1612 3.73253 34.4299 3.95864 34.6562C4.18475 34.8825 4.45324 35.062 4.74876 35.1845C5.04428 35.3071 5.36104 35.3702 5.68095 35.3702L8.08719 34.3545C8.0801 34.2838 8.07649 34.2128 8.07639 34.1417L8.07693 13.1968Z" fill="#7F55B1"/>
<path d="M28.2807 28.7059C28.2807 30.0532 27.59 30.4042 25.8442 31.1429L10.5093 36.5801C9.86299 36.58 9.24321 36.3232 8.78621 35.8662C8.32921 35.4092 8.07241 34.7894 8.07227 34.1431V13.1987C8.07227 11.853 8.86391 11.4048 10.5093 10.7628L25.8442 5.32495C26.4904 5.32509 27.1102 5.58191 27.5671 6.03893C28.024 6.49594 28.2807 7.11573 28.2807 7.76197V28.7059Z" fill="#392650"/>
<path d="M21.9305 11.7173C21.9461 11.7578 21.9537 11.8009 21.9526 11.8443C21.9516 11.8876 21.9419 11.9304 21.9243 11.97C21.9067 12.0096 21.8815 12.0454 21.85 12.0752C21.8185 12.1051 21.7815 12.1284 21.741 12.1439L13.5848 15.2894C13.5445 15.3051 13.5015 15.3128 13.4582 15.3119C13.4149 15.3109 13.3723 15.3015 13.3327 15.2841C13.2931 15.2667 13.2573 15.2417 13.2273 15.2104C13.1974 15.1792 13.1739 15.1424 13.1582 15.102C13.1268 15.0202 13.129 14.9292 13.1644 14.849C13.1998 14.7688 13.2655 14.7058 13.3472 14.6738L21.5039 11.5299C21.5442 11.5142 21.5872 11.5066 21.6305 11.5075C21.6737 11.5084 21.7164 11.5179 21.756 11.5353C21.7956 11.5527 21.8314 11.5777 21.8614 11.6089C21.8913 11.6402 21.9148 11.677 21.9305 11.7173ZM21.9305 13.2174C21.946 13.2577 21.9535 13.3007 21.9523 13.3439C21.9512 13.3871 21.9416 13.4296 21.924 13.4691C21.9064 13.5085 21.8811 13.5441 21.8497 13.5737C21.8183 13.6034 21.7813 13.6266 21.741 13.6419L13.5848 16.7868C13.5046 16.8128 13.4174 16.8071 13.3413 16.7709C13.2652 16.7346 13.2058 16.6706 13.1754 16.5919C13.145 16.5133 13.1459 16.426 13.1778 16.3479C13.2097 16.2699 13.2704 16.2071 13.3472 16.1723L21.5039 13.0274C21.5857 12.9962 21.6765 12.9987 21.7564 13.0343C21.8364 13.07 21.899 13.1358 21.9305 13.2174ZM19.1565 15.8354C19.2202 16.006 19.1803 16.1788 19.0647 16.2242L13.4935 18.3707C13.3785 18.4155 13.2322 18.3156 13.1658 18.1455C13.101 17.9743 13.1409 17.7999 13.2565 17.7572L18.8266 15.608C18.9438 15.5648 19.0896 15.6658 19.1565 15.8354Z" fill="#FCE0E5"/>
<path d="M39.2299 32V8.96H42.5739V28.848H53.0059V32H39.2299ZM63.3864 32.48C61.6691 32.48 60.1598 32.1067 58.8584 31.36C57.5678 30.6027 56.5598 29.552 55.8344 28.208C55.1198 26.8533 54.7624 25.2853 54.7624 23.504C54.7624 21.616 55.1144 19.9787 55.8184 18.592C56.5331 17.2053 57.5251 16.1333 58.7944 15.376C60.0638 14.6187 61.5411 14.24 63.2264 14.24C64.9864 14.24 66.4851 14.6507 67.7224 15.472C68.9598 16.2827 69.8824 17.44 70.4904 18.944C71.1091 20.448 71.3544 22.2347 71.2264 24.304H67.8824V23.088C67.8611 21.0827 67.4771 19.6 66.7304 18.64C65.9944 17.68 64.8691 17.2 63.3544 17.2C61.6798 17.2 60.4211 17.728 59.5784 18.784C58.7358 19.84 58.3144 21.3653 58.3144 23.36C58.3144 25.2587 58.7358 26.7307 59.5784 27.776C60.4211 28.8107 61.6371 29.328 63.2264 29.328C64.2718 29.328 65.1731 29.0933 65.9304 28.624C66.6984 28.144 67.2958 27.4613 67.7224 26.576L71.0024 27.616C70.3304 29.1627 69.3118 30.3627 67.9464 31.216C66.5811 32.0587 65.0611 32.48 63.3864 32.48ZM57.2264 24.304V21.696H69.5624V24.304H57.2264ZM79.3837 32.48C78.1037 32.48 77.0317 32.2453 76.1677 31.776C75.3037 31.296 74.6477 30.6667 74.1997 29.888C73.7623 29.0987 73.5437 28.2347 73.5437 27.296C73.5437 26.4213 73.6983 25.6533 74.0077 24.992C74.317 24.3307 74.7757 23.7707 75.3837 23.312C75.9917 22.8427 76.7383 22.464 77.6237 22.176C78.3917 21.952 79.261 21.7547 80.2317 21.584C81.2023 21.4133 82.221 21.2533 83.2877 21.104C84.365 20.9547 85.4317 20.8053 86.4877 20.656L85.2717 21.328C85.293 19.9733 85.005 18.9707 84.4077 18.32C83.821 17.6587 82.8077 17.328 81.3677 17.328C80.461 17.328 79.629 17.5413 78.8717 17.968C78.1143 18.384 77.5863 19.0773 77.2877 20.048L74.1677 19.088C74.5943 17.6053 75.405 16.4267 76.5997 15.552C77.805 14.6773 79.405 14.24 81.3997 14.24C82.9463 14.24 84.2903 14.5067 85.4317 15.04C86.5837 15.5627 87.4263 16.3947 87.9597 17.536C88.237 18.1013 88.4077 18.6987 88.4717 19.328C88.5357 19.9573 88.5677 20.6347 88.5677 21.36V32H85.6077V28.048L86.1837 28.56C85.469 29.8827 84.557 30.8693 83.4477 31.52C82.349 32.16 80.9943 32.48 79.3837 32.48ZM79.9757 29.744C80.925 29.744 81.741 29.5787 82.4237 29.248C83.1063 28.9067 83.6557 28.4747 84.0717 27.952C84.4877 27.4293 84.7597 26.8853 84.8877 26.32C85.069 25.808 85.1703 25.232 85.1917 24.592C85.2237 23.952 85.2397 23.44 85.2397 23.056L86.3277 23.456C85.2717 23.616 84.3117 23.76 83.4477 23.888C82.5837 24.016 81.7997 24.144 81.0957 24.272C80.4023 24.3893 79.7837 24.5333 79.2397 24.704C78.781 24.864 78.3703 25.056 78.0077 25.28C77.6557 25.504 77.373 25.776 77.1597 26.096C76.957 26.416 76.8557 26.8053 76.8557 27.264C76.8557 27.712 76.9677 28.128 77.1917 28.512C77.4157 28.8853 77.757 29.184 78.2157 29.408C78.6743 29.632 79.261 29.744 79.9757 29.744ZM92.7224 32V14.72H95.6984V18.912L95.2824 18.368C95.4958 17.8133 95.7731 17.3067 96.1144 16.848C96.4558 16.3787 96.8504 15.9947 97.2984 15.696C97.7358 15.376 98.2211 15.1307 98.7544 14.96C99.2984 14.7787 99.8531 14.672 100.418 14.64C100.984 14.5973 101.528 14.624 102.05 14.72V17.856C101.485 17.7067 100.856 17.664 100.162 17.728C99.4798 17.792 98.8504 18.0107 98.2744 18.384C97.7304 18.736 97.2984 19.1627 96.9784 19.664C96.6691 20.1653 96.4451 20.7253 96.3064 21.344C96.1678 21.952 96.0984 22.5973 96.0984 23.28V32H92.7224ZM117.225 32V23.504C117.225 22.832 117.167 22.144 117.049 21.44C116.943 20.7253 116.729 20.064 116.409 19.456C116.1 18.848 115.657 18.3573 115.081 17.984C114.516 17.6107 113.775 17.424 112.857 17.424C112.26 17.424 111.695 17.5253 111.161 17.728C110.628 17.92 110.159 18.2347 109.753 18.672C109.359 19.1093 109.044 19.6853 108.809 20.4C108.585 21.1147 108.473 21.984 108.473 23.008L106.393 22.224C106.393 20.656 106.687 19.2747 107.273 18.08C107.86 16.8747 108.703 15.936 109.801 15.264C110.9 14.592 112.228 14.256 113.785 14.256C114.98 14.256 115.983 14.448 116.793 14.832C117.604 15.216 118.26 15.7227 118.761 16.352C119.273 16.9707 119.663 17.648 119.929 18.384C120.196 19.12 120.377 19.84 120.473 20.544C120.569 21.248 120.617 21.8667 120.617 22.4V32H117.225ZM105.081 32V14.72H108.073V19.712H108.473V32H105.081ZM124.785 32V8.96H138.433V12.304H128.129V18.8H136.513V22.16H128.129V32H124.785ZM141.636 32V8.48H144.98V32H141.636ZM157.449 32.48C155.732 32.48 154.222 32.1067 152.921 31.36C151.63 30.6027 150.622 29.552 149.897 28.208C149.182 26.8533 148.825 25.2853 148.825 23.504C148.825 21.616 149.177 19.9787 149.881 18.592C150.596 17.2053 151.588 16.1333 152.857 15.376C154.126 14.6187 155.604 14.24 157.289 14.24C159.049 14.24 160.548 14.6507 161.785 15.472C163.022 16.2827 163.945 17.44 164.553 18.944C165.172 20.448 165.417 22.2347 165.289 24.304H161.945V23.088C161.924 21.0827 161.54 19.6 160.793 18.64C160.057 17.68 158.932 17.2 157.417 17.2C155.742 17.2 154.484 17.728 153.641 18.784C152.798 19.84 152.377 21.3653 152.377 23.36C152.377 25.2587 152.798 26.7307 153.641 27.776C154.484 28.8107 155.7 29.328 157.289 29.328C158.334 29.328 159.236 29.0933 159.993 28.624C160.761 28.144 161.358 27.4613 161.785 26.576L165.065 27.616C164.393 29.1627 163.374 30.3627 162.009 31.216C160.644 32.0587 159.124 32.48 157.449 32.48ZM151.289 24.304V21.696H163.625V24.304H151.289ZM166.334 32L172.798 23.264L166.478 14.72H170.446L174.75 20.656L179.006 14.72H182.974L176.654 23.264L183.134 32H179.15L174.75 25.872L170.318 32H166.334Z" fill="#724D9F"/>
</svg>
