<svg width="184" height="40" viewBox="0 0 184 40" fill="none" xmlns="http://www.w3.org/2000/svg">
<path d="M3.34928 33.7558C3.34928 33.7558 4.33586 37.5504 10.5086 36.58L11.5584 34.0393L9.78284 32.1099L4.86614 30.4883L3.34766 33.7564" fill="#392650"/>
<path d="M23.0185 26.6418C23.0185 27.9864 22.3246 28.3384 20.5809 29.0772L5.67422 35.3698C5.35422 35.3699 5.03734 35.3069 4.74169 35.1844C4.44605 35.0619 4.17744 34.8824 3.95121 34.6561C3.72499 34.4298 3.54558 34.1611 3.42325 33.8654C3.30092 33.5697 3.23807 33.2528 3.23828 32.9328V11.9905C3.23828 10.6426 4.02884 10.1961 5.67422 9.55239L20.5809 3.25977C20.9008 3.25955 21.2177 3.32237 21.5133 3.44463C21.8089 3.56689 22.0776 3.7462 22.3039 3.97231C22.5302 4.19843 22.7097 4.46691 22.8322 4.76243C22.9548 5.05795 23.0179 5.37471 23.0179 5.69463V26.6412" fill="#D7CAE7"/>
<path d="M4.59375 35.1122C4.59375 35.1122 10.1806 36.716 10.5057 36.5777C10.8324 36.4389 10.2978 34.1547 10.2978 34.1547L8.27709 31.978L6.39627 31.8916L6.06525 32.3614L4.59375 35.1122Z" fill="#1E1E1E"/>
<path d="M20.2312 4.70801L3.69531 11.6567L4.47021 16.1079L6.92991 16.3542L15.1455 15.0312L20.2533 12.3544L24.0134 7.20551C23.1915 5.73185 21.9857 4.81979 20.2317 4.70801" fill="#F4F5F5"/>
<path d="M8.07693 13.1962C8.07693 12.8074 8.14389 12.4941 8.27835 12.2295C6.58761 12.0729 4.98975 11.5821 3.82173 10.5312C3.43617 10.8866 3.24609 11.3294 3.24609 11.9892V32.9326C3.24588 33.2525 3.3087 33.5693 3.43096 33.865C3.55322 34.1606 3.73253 34.4292 3.95864 34.6556C4.18475 34.8819 4.45324 35.0614 4.74876 35.1839C5.04428 35.3065 5.36104 35.3696 5.68095 35.3696L8.08719 34.3539C8.0801 34.2832 8.07649 34.2122 8.07639 34.1411L8.07693 13.1962Z" fill="#7F55B1"/>
<path d="M28.2826 28.7051C28.2826 30.0524 27.592 30.4034 25.8462 31.1422L10.5112 36.5794C9.86494 36.5793 9.24516 36.3225 8.78816 35.8655C8.33116 35.4085 8.07436 34.7887 8.07422 34.1424V13.198C8.07422 11.8523 8.86586 11.4041 10.5112 10.762L25.8462 5.32422C26.4924 5.32436 27.1121 5.58118 27.569 6.0382C28.026 6.49521 28.2826 7.11499 28.2826 7.76124V28.7051Z" fill="#392650"/>
<path d="M21.9324 11.7167C21.9481 11.7572 21.9556 11.8003 21.9546 11.8437C21.9535 11.887 21.9439 11.9297 21.9263 11.9694C21.9087 12.009 21.8834 12.0448 21.8519 12.0746C21.8205 12.1045 21.7834 12.1278 21.7429 12.1433L13.5867 15.2888C13.5464 15.3045 13.5034 15.3122 13.4602 15.3112C13.4169 15.3103 13.3742 15.3009 13.3346 15.2835C13.295 15.2661 13.2592 15.2411 13.2293 15.2098C13.1993 15.1786 13.1758 15.1418 13.1601 15.1014C13.1287 15.0196 13.131 14.9286 13.1664 14.8484C13.2018 14.7681 13.2675 14.7052 13.3491 14.6732L21.5058 11.5293C21.5462 11.5136 21.5892 11.506 21.6324 11.5069C21.6757 11.5078 21.7183 11.5172 21.758 11.5346C21.7976 11.552 21.8334 11.5771 21.8633 11.6083C21.8933 11.6396 21.9167 11.6764 21.9324 11.7167ZM21.9324 13.2168C21.948 13.2571 21.9554 13.3001 21.9543 13.3433C21.9532 13.3865 21.9435 13.429 21.9259 13.4685C21.9083 13.5079 21.8831 13.5435 21.8517 13.5731C21.8203 13.6028 21.7833 13.626 21.7429 13.6413L13.5867 16.7862C13.5065 16.8122 13.4194 16.8065 13.3433 16.7702C13.2671 16.734 13.2078 16.67 13.1774 16.5913C13.147 16.5127 13.1478 16.4254 13.1798 16.3473C13.2117 16.2693 13.2723 16.2065 13.3491 16.1717L21.5058 13.0268C21.5876 12.9956 21.6784 12.9981 21.7584 13.0337C21.8383 13.0694 21.9009 13.1352 21.9324 13.2168ZM19.1585 15.8348C19.2222 16.0054 19.1822 16.1782 19.0667 16.2236L13.4955 18.3701C13.3805 18.4149 13.2341 18.315 13.1677 18.1449C13.1029 17.9737 13.1429 17.7993 13.2584 17.7566L18.8285 15.6074C18.9457 15.5642 19.0915 15.6652 19.1585 15.8348Z" fill="#FCE0E5"/>
<path d="M39.228 32V8.96H42.572V28.848H53.004V32H39.228ZM63.3845 32.48C61.6671 32.48 60.1578 32.1067 58.8565 31.36C57.5658 30.6027 56.5578 29.552 55.8325 28.208C55.1178 26.8533 54.7605 25.2853 54.7605 23.504C54.7605 21.616 55.1125 19.9787 55.8165 18.592C56.5311 17.2053 57.5231 16.1333 58.7925 15.376C60.0618 14.6187 61.5391 14.24 63.2245 14.24C64.9845 14.24 66.4831 14.6507 67.7205 15.472C68.9578 16.2827 69.8805 17.44 70.4885 18.944C71.1071 20.448 71.3525 22.2347 71.2245 24.304H67.8805V23.088C67.8591 21.0827 67.4751 19.6 66.7285 18.64C65.9925 17.68 64.8671 17.2 63.3525 17.2C61.6778 17.2 60.4191 17.728 59.5765 18.784C58.7338 19.84 58.3125 21.3653 58.3125 23.36C58.3125 25.2587 58.7338 26.7307 59.5765 27.776C60.4191 28.8107 61.6351 29.328 63.2245 29.328C64.2698 29.328 65.1711 29.0933 65.9285 28.624C66.6965 28.144 67.2938 27.4613 67.7205 26.576L71.0005 27.616C70.3285 29.1627 69.3098 30.3627 67.9445 31.216C66.5791 32.0587 65.0591 32.48 63.3845 32.48ZM57.2245 24.304V21.696H69.5605V24.304H57.2245ZM79.3817 32.48C78.1017 32.48 77.0297 32.2453 76.1657 31.776C75.3017 31.296 74.6457 30.6667 74.1977 29.888C73.7604 29.0987 73.5417 28.2347 73.5417 27.296C73.5417 26.4213 73.6964 25.6533 74.0057 24.992C74.3151 24.3307 74.7737 23.7707 75.3817 23.312C75.9897 22.8427 76.7364 22.464 77.6217 22.176C78.3897 21.952 79.2591 21.7547 80.2297 21.584C81.2004 21.4133 82.2191 21.2533 83.2857 21.104C84.3631 20.9547 85.4297 20.8053 86.4857 20.656L85.2697 21.328C85.2911 19.9733 85.0031 18.9707 84.4057 18.32C83.8191 17.6587 82.8057 17.328 81.3657 17.328C80.4591 17.328 79.6271 17.5413 78.8697 17.968C78.1124 18.384 77.5844 19.0773 77.2857 20.048L74.1657 19.088C74.5924 17.6053 75.4031 16.4267 76.5977 15.552C77.8031 14.6773 79.4031 14.24 81.3977 14.24C82.9444 14.24 84.2884 14.5067 85.4297 15.04C86.5817 15.5627 87.4244 16.3947 87.9577 17.536C88.2351 18.1013 88.4057 18.6987 88.4697 19.328C88.5337 19.9573 88.5657 20.6347 88.5657 21.36V32H85.6057V28.048L86.1817 28.56C85.4671 29.8827 84.5551 30.8693 83.4457 31.52C82.3471 32.16 80.9924 32.48 79.3817 32.48ZM79.9737 29.744C80.9231 29.744 81.7391 29.5787 82.4217 29.248C83.1044 28.9067 83.6537 28.4747 84.0697 27.952C84.4857 27.4293 84.7577 26.8853 84.8857 26.32C85.0671 25.808 85.1684 25.232 85.1897 24.592C85.2217 23.952 85.2377 23.44 85.2377 23.056L86.3257 23.456C85.2697 23.616 84.3097 23.76 83.4457 23.888C82.5817 24.016 81.7977 24.144 81.0937 24.272C80.4004 24.3893 79.7817 24.5333 79.2377 24.704C78.7791 24.864 78.3684 25.056 78.0057 25.28C77.6537 25.504 77.3711 25.776 77.1577 26.096C76.9551 26.416 76.8537 26.8053 76.8537 27.264C76.8537 27.712 76.9657 28.128 77.1897 28.512C77.4137 28.8853 77.7551 29.184 78.2137 29.408C78.6724 29.632 79.2591 29.744 79.9737 29.744ZM92.7205 32V14.72H95.6965V18.912L95.2805 18.368C95.4938 17.8133 95.7711 17.3067 96.1125 16.848C96.4538 16.3787 96.8485 15.9947 97.2965 15.696C97.7338 15.376 98.2191 15.1307 98.7525 14.96C99.2965 14.7787 99.8511 14.672 100.416 14.64C100.982 14.5973 101.526 14.624 102.048 14.72V17.856C101.483 17.7067 100.854 17.664 100.16 17.728C99.4778 17.792 98.8485 18.0107 98.2725 18.384C97.7285 18.736 97.2965 19.1627 96.9765 19.664C96.6671 20.1653 96.4431 20.7253 96.3045 21.344C96.1658 21.952 96.0965 22.5973 96.0965 23.28V32H92.7205ZM117.223 32V23.504C117.223 22.832 117.165 22.144 117.047 21.44C116.941 20.7253 116.727 20.064 116.407 19.456C116.098 18.848 115.655 18.3573 115.079 17.984C114.514 17.6107 113.773 17.424 112.855 17.424C112.258 17.424 111.693 17.5253 111.159 17.728C110.626 17.92 110.157 18.2347 109.751 18.672C109.357 19.1093 109.042 19.6853 108.807 20.4C108.583 21.1147 108.471 21.984 108.471 23.008L106.391 22.224C106.391 20.656 106.685 19.2747 107.271 18.08C107.858 16.8747 108.701 15.936 109.799 15.264C110.898 14.592 112.226 14.256 113.783 14.256C114.978 14.256 115.981 14.448 116.791 14.832C117.602 15.216 118.258 15.7227 118.759 16.352C119.271 16.9707 119.661 17.648 119.927 18.384C120.194 19.12 120.375 19.84 120.471 20.544C120.567 21.248 120.615 21.8667 120.615 22.4V32H117.223ZM105.079 32V14.72H108.071V19.712H108.471V32H105.079ZM124.783 32V8.96H138.431V12.304H128.127V18.8H136.511V22.16H128.127V32H124.783ZM141.634 32V8.48H144.978V32H141.634ZM157.447 32.48C155.73 32.48 154.22 32.1067 152.919 31.36C151.628 30.6027 150.62 29.552 149.895 28.208C149.18 26.8533 148.823 25.2853 148.823 23.504C148.823 21.616 149.175 19.9787 149.879 18.592C150.594 17.2053 151.586 16.1333 152.855 15.376C154.124 14.6187 155.602 14.24 157.287 14.24C159.047 14.24 160.546 14.6507 161.783 15.472C163.02 16.2827 163.943 17.44 164.551 18.944C165.17 20.448 165.415 22.2347 165.287 24.304H161.943V23.088C161.922 21.0827 161.538 19.6 160.791 18.64C160.055 17.68 158.93 17.2 157.415 17.2C155.74 17.2 154.482 17.728 153.639 18.784C152.796 19.84 152.375 21.3653 152.375 23.36C152.375 25.2587 152.796 26.7307 153.639 27.776C154.482 28.8107 155.698 29.328 157.287 29.328C158.332 29.328 159.234 29.0933 159.991 28.624C160.759 28.144 161.356 27.4613 161.783 26.576L165.063 27.616C164.391 29.1627 163.372 30.3627 162.007 31.216C160.642 32.0587 159.122 32.48 157.447 32.48ZM151.287 24.304V21.696H163.623V24.304H151.287ZM166.332 32L172.796 23.264L166.476 14.72H170.444L174.748 20.656L179.004 14.72H182.972L176.652 23.264L183.132 32H179.148L174.748 25.872L170.316 32H166.332Z" fill="#FBFBFB"/>
</svg>
